<svg xmlns="http://www.w3.org/2000/svg" viewBox="0 0 220.6 220.6"><title>checkmark_ikon</title><circle cx="110.3" cy="110.3" r="110.3" fill="#378361"/><path d="M196.77,62.42a.78.78,0,0,1,0,.16,1.2,1.2,0,0,1-.64,1c-.87.63-1.85.95-2.75,1.5-1.39.85-2.82,1.64-4.18,2.56q-4.12,2.81-8.16,5.78Q173,79.34,165.34,86a270.35,270.35,0,0,0-22.14,21.63A313,313,0,0,0,118.87,138q-5.76,8.15-11.14,16.62c-2.32,3.66-4.31,7.59-6.44,11.39-.79,1.43-1.38,3.07-2.27,4.42-.39.6-1.06,1.28-1.78,1s-.86-1.63-1.07-2.43a41.51,41.51,0,0,0-2.41-6.35,65.23,65.23,0,0,0-4.94-8.9l-.4-.6c-.49-.72-1-1.44-1.5-2.15a105.08,105.08,0,0,0-15.27-16.76c-2.61-2.33-5.3-4.56-8.09-6.62q-2.09-1.55-4.26-3c-1.42-.92-2.9-1.71-4.34-2.61a19.24,19.24,0,0,1-3.6-2.72,4.76,4.76,0,0,1-1-1.37c-.79-1.81.88-3.79,2.07-4.83a33.34,33.34,0,0,1,3.38-2.56,59.09,59.09,0,0,1,5.59-3.14,13.23,13.23,0,0,1,6.32-1.42c3.76-.19,29.21,25.57,28.6,31.44,0-.75.89-2.07,1.2-2.75.45-1,.92-2,1.4-2.94,1-2.06,2.12-4.07,3.27-6.06,2.55-4.42,5.34-8.66,8.27-12.78a260.76,260.76,0,0,1,22.61-27.26,382.62,382.62,0,0,1,29.09-27.78c2.39-2.06,4.85-4,7.08-6.29,1.86-1.89,4.59-6.35,7.63-4.5a6.63,6.63,0,0,1,1.75,1.79c3.53,4.79,8.13,9.32,13.67,11C193.73,60.19,196.31,60.46,196.77,62.42Z" fill="#5ebd6c"/></svg>