<svg xmlns="http://www.w3.org/2000/svg" viewBox="0 0 96.23 88.6"><title>storm_sound_on_ikon</title><path d="M46.4,0V44.3H0V16.77C17.94,16.09,33.06,9.83,46.4,0Z" fill="#fff"/><path d="M46.4,88.6V44.3H0V71.83C17.94,72.51,33.06,78.77,46.4,88.6Z" fill="#fff"/><path d="M62.71,44.3c0-4.79-7.86-13.09-10-14.77S65,37.09,65,44.21c0,0,0,.06,0,.09" fill="#fff" stroke="#fff" stroke-miterlimit="10"/><path d="M65,44.3s0,.05,0,.09c0,7.12-14.44,16.36-12.28,14.68s10-10,10-14.77" fill="#fff" stroke="#fff" stroke-miterlimit="10"/><path d="M77.54,44.3c-.05-9.13-13.18-25-16.8-28.17s20.67,14.43,20.59,28c0,.06,0,.1,0,.16" fill="#fff" stroke="#fff" stroke-miterlimit="10"/><path d="M81.31,44.3c0,.06,0,.1,0,.16.08,13.58-24.2,31.21-20.59,28s16.75-19,16.8-28.17" fill="#fff" stroke="#fff" stroke-miterlimit="10"/><path d="M91,44.3C90.9,33.05,74.37,13.53,69.81,9.58s26,17.78,25.92,34.52c0,.07,0,.13,0,.2" fill="#fff" stroke="#fff" stroke-miterlimit="10"/><path d="M95.71,44.3c0,.07,0,.13,0,.2C95.83,61.24,65.26,83,69.81,79S90.9,55.55,91,44.3" fill="#fff" stroke="#fff" stroke-miterlimit="10"/></svg>